<?xml version="1.0" encoding="utf-8" ?>
<svg xmlns="http://www.w3.org/2000/svg" xmlns:xlink="http://www.w3.org/1999/xlink" width="1024" height="1024">
	<defs>
		<linearGradient id="gradient_0" gradientUnits="userSpaceOnUse" x1="522.12897" y1="216.72426" x2="118.4038" y2="539.72351">
			<stop offset="0" stop-color="#FC1C3C"/>
			<stop offset="1" stop-color="#F7C139"/>
		</linearGradient>
	</defs>
	<path fill="url(#gradient_0)" transform="scale(1.6 1.6)" d="M499.236 228.159C509.299 226.584 520.142 226.513 530.322 226.541L530.328 484.298C530.329 494.719 531.164 506.475 529.521 516.72C525.075 544.441 502.285 558.263 476.037 558.102L386.302 557.81C370.097 557.812 353.79 558.208 337.594 557.814L173.668 557.824C165.167 557.823 156.15 558.31 147.764 556.769C127.263 553.002 110.39 536.316 106.97 515.602C105.58 507.185 106.366 495.122 106.369 486.279L106.379 228.159C116.148 227.495 127.393 228.14 137.349 228.159L137.355 480.96C137.352 494.979 132.552 524.21 152.466 527.357C157.591 528.167 163.471 527.503 168.682 527.487L328.474 527.477C332.684 527.222 337.071 527.465 341.3 527.469L445.811 527.47C458.343 527.469 484.286 530.23 492.935 522.529C501.451 514.945 499.245 504.177 499.236 493.96L499.236 251.149C499.234 243.54 498.78 235.736 499.236 228.159Z"/>
	<defs>
		<linearGradient id="gradient_1" gradientUnits="userSpaceOnUse" x1="316.34952" y1="233.55696" x2="320.92526" y2="84.420105">
			<stop offset="0" stop-color="#3DB08A"/>
			<stop offset="1" stop-color="#566990"/>
		</linearGradient>
	</defs>
	<path fill="url(#gradient_1)" transform="scale(1.6 1.6)" d="M106.379 228.159L106.177 135.551C106.127 112.484 124.641 91.6143 147.062 87.4054C156.242 85.682 166.52 86.5271 175.866 86.5257L397.616 86.4984C409.743 86.4965 412.82 91.4241 422.527 98.595L513.555 167.014C518.598 170.77 527.387 176.079 529.429 182.481C531.232 188.135 530.332 218.484 530.322 226.541C520.142 226.513 509.299 226.584 499.236 228.159L137.349 228.159C127.393 228.14 116.148 227.495 106.379 228.159ZM161.215 117.297C132.414 118.21 136.579 136.626 136.578 158.074C136.578 170.672 135.244 185.81 137.349 198.128C167.088 197.328 196.869 197.658 226.625 197.657L363.594 197.659L388.459 197.659L388.465 143.714C388.467 134.989 388.942 125.993 388.459 117.297C380.473 117.79 372.259 117.299 364.238 117.296L161.215 117.297ZM419.701 135.242L419.701 197.659L471.075 197.649C479.606 197.648 488.242 197.366 496.765 197.659C494.161 189.666 479.335 181.312 472.725 176.348L439.698 151.299C432.949 146.232 426.73 139.829 419.701 135.242Z"/>
	<path fill="#FB6633" transform="scale(1.6 1.6)" d="M458.712 261.659C479.21 262.281 472.833 283.876 471.163 295.018C469.318 307.323 467.687 319.624 465.637 331.903C463.777 343.041 462.429 361.915 446.11 360.244C437.336 359.346 428.826 349.418 423.679 342.999C390.423 373.514 357.992 409.535 325.674 441.559C310.424 456.669 295.812 435.975 285.763 425.867L252.467 392.302C238.183 405.763 224.436 420.062 210.572 433.98C199.572 445.022 192.279 460.116 175.968 454.45C167.56 450.288 162.871 439.942 168.92 431.615C171.53 428.022 175.292 424.99 178.48 421.915L239.907 359.955C255.703 343.634 273.617 369.396 284.408 380.155L314.082 409.216C319.901 402.727 326.326 396.674 332.471 390.487L363.722 359.194C376.219 346.874 388.282 333.886 401.215 322.038C394.251 316.826 378.155 304.239 376.443 295.704C372.593 276.523 401.877 275.177 414.676 272.11C429.287 268.61 443.923 264.277 458.712 261.659ZM435.845 299.153L424.664 301.323C426.772 303.075 428.934 304.789 430.918 306.681C432.525 308.385 434.098 310.168 435.845 311.727C436.112 307.987 437.015 303.019 436.355 299.37L435.845 299.153Z"/>
</svg>
